<svg xmlns="http://www.w3.org/2000/svg" viewBox="0 0 1920 1080.001"><defs><style>.a{fill:#d1cece;}.b{fill:#a9ccf3;}.c{fill:#c1b6b6;}</style></defs><g transform="translate(0 0)"><rect class="a" width="1920" height="1080"/><path class="b" d="M219.053,207H94q0-.194,0-.387V206.5a208.037,208.037,0,0,1,4.2-41.617,205.347,205.347,0,0,1,31.072-73.839,207.1,207.1,0,0,1,90.854-74.816A205.4,205.4,0,0,1,258.883,4.2a208.488,208.488,0,0,1,83.234,0,205.346,205.346,0,0,1,73.839,31.072,207.09,207.09,0,0,1,74.816,90.853A205.488,205.488,0,0,1,502.8,164.883,208.039,208.039,0,0,1,507,206.5c0,.167,0,.332,0,.5H484.946a141.014,141.014,0,0,0-265.892,0Z" transform="translate(46 873)"/><path class="b" d="M249.594,447.817c-5.623,0-11.3-.244-16.88-.725A198.022,198.022,0,0,1,59.172,195.063c.2-.7.412-1.418.623-2.12h82.7a135.29,135.29,0,0,0,270.437,0h26.544a199.544,199.544,0,0,1,7.1,34.7,197.052,197.052,0,0,1-6.459,76.587,198.7,198.7,0,0,1-60.72,95.2A197.121,197.121,0,0,1,347.6,421.9a198.542,198.542,0,0,1-98,25.914Z" transform="translate(1181.146 -192.943)"/><path class="c" d="M83.5,260A83.114,83.114,0,0,1,36.815,245.74,83.747,83.747,0,0,1,6.562,209a83.392,83.392,0,0,1,7.7-79.188A83.741,83.741,0,0,1,51,99.562a83.773,83.773,0,0,1,65,0c1.679.71,3.361,1.489,5,2.313v49.538a45,45,0,1,0,0,51.173v48.539c-1.64.826-3.321,1.6-5,2.313A82.975,82.975,0,0,1,83.5,260Z" transform="translate(1799 324)"/></g></svg>